<?xml version="1.0" encoding="UTF-8"?>
<svg width="96px" height="87px" viewBox="0 0 96 87" version="1.1" xmlns="http://www.w3.org/2000/svg" xmlns:xlink="http://www.w3.org/1999/xlink">
    <!-- Generator: Sketch 51.2 (57519) - http://www.bohemiancoding.com/sketch -->
    <title>icon-backup</title>
    <desc>Created with Sketch.</desc>
    <defs>
        <linearGradient x1="50%" y1="0%" x2="100%" y2="100%" id="linearGradient-1">
            <stop stop-color="#3B2667" offset="0%"></stop>
            <stop stop-color="#BC78EC" offset="100%"></stop>
        </linearGradient>
        <linearGradient x1="50%" y1="0%" x2="100%" y2="100%" id="linearGradient-2">
            <stop stop-color="#CE9FFC" offset="0%"></stop>
            <stop stop-color="#7367F0" offset="100%"></stop>
        </linearGradient>
    </defs>
    <g id="Page-1" stroke="none" stroke-width="1" fill="none" fill-rule="evenodd">
        <g id="Backup-Page-2" transform="translate(-844.000000, -356.000000)">
            <g id="icon-backup" transform="translate(844.000000, 356.000000)">
                <path d="M49.6387896,38.8173363 L92.7831903,57.9296209 C95.3079777,59.0480617 96.448047,62.0014816 95.3296062,64.526269 C94.826513,65.6619603 93.9187034,66.5697301 92.7829901,67.0727736 L49.6385013,86.1828369 C47.7854955,87.003592 45.6677234,86.9809713 43.832672,86.1208227 L3.10083602,67.0284804 C0.600463564,65.8564741 -0.476390002,62.8794229 0.695616265,60.3790505 C1.19159322,59.3209272 2.0425295,58.4699522 3.10063024,57.9739272 L43.8323919,38.8793614 C45.6676017,38.0190369 47.7856204,37.9964118 49.6387896,38.8173363 Z" id="Rectangle-Copy-2" fill="url(#linearGradient-1)"></path>
                <path d="M48.8052653,19.4480983 L92.7831903,38.9296209 C95.3079777,40.0480617 96.448047,43.0014816 95.3296062,45.526269 C94.826513,46.6619603 93.9187034,47.5697301 92.7829901,48.0727736 L48.8050594,67.5519948 C47.4814838,68.1382484 45.9687894,68.1220908 44.6580384,67.5076989 L3.10083602,48.0284804 C0.600463564,46.8564741 -0.476390002,43.8794229 0.695616265,41.3790505 C1.19159322,40.3209272 2.0425295,39.4699522 3.10063024,38.9739272 L44.6578384,19.4924019 C45.9687025,18.8778844 47.481573,18.8617236 48.8052653,19.4480983 Z" id="Rectangle-Copy" fill="url(#linearGradient-2)" opacity="0.5"></path>
                <path d="M48.8052653,0.448098311 L92.7831903,19.9296209 C95.3079777,21.0480617 96.448047,24.0014816 95.3296062,26.526269 C94.826513,27.6619603 93.9187034,28.5697301 92.7829901,29.0727736 L48.8050594,48.5519948 C47.4814838,49.1382484 45.9687894,49.1220908 44.6580384,48.5076989 L3.10083602,29.0284804 C0.600463564,27.8564741 -0.476390002,24.8794229 0.695616265,22.3790505 C1.19159322,21.3209272 2.0425295,20.4699522 3.10063024,19.9739272 L44.6578384,0.492401941 C45.9687025,-0.122115579 47.481573,-0.138276359 48.8052653,0.448098311 Z" id="Rectangle" fill="url(#linearGradient-2)" opacity="0.149999991"></path>
            </g>
        </g>
    </g>
</svg>