<svg width="64" height="64" viewBox="0 0 64 64" fill="none" xmlns="http://www.w3.org/2000/svg">
<rect width="31.6816" height="41.1861" transform="matrix(0.866009 -0.500028 -3.18609e-05 1 12.0013 18.8418)" fill="#CD5050"/>
<rect width="31.6816" height="41.1861" transform="matrix(0.866009 -0.500028 -3.18609e-05 1 14.3777 19.6338)" fill="white"/>
<path d="M23.3327 32.7004C21.1806 33.943 19.436 32.9358 19.4361 30.4508C19.4362 28.1074 20.9876 25.2867 22.969 23.9308C23.3744 20.8498 25.5154 17.4417 28.0957 15.9519C30.6759 14.462 32.8168 15.3978 33.222 18.0107C35.2035 17.0786 36.7547 18.1078 36.7547 20.4512C36.7546 22.9362 35.0099 25.958 32.8578 27.2006C29.0566 29.3955 26.6607 30.7788 23.3327 32.7004Z" fill="#374874"/>
<rect width="25.3453" height="3.9602" transform="matrix(0.866009 -0.500028 -3.18683e-05 1 17.1209 39.9302)" fill="#C1DBF6"/>
<rect width="25.3453" height="3.9602" transform="matrix(0.866009 -0.500028 -3.18683e-05 1 17.1207 47.0588)" fill="#374874"/>
<rect width="12.7843" height="0.318591" transform="matrix(0.866009 -0.500028 -3.18683e-05 1 27.9982 50.5479)" fill="#C1DBF6"/>
<path d="M12 18.8423L14.3763 19.6344V60.8244L12 60.0323V18.8423Z" fill="#FBDBD0"/>
<path d="M12 18.8424L39.4301 3.00317L41.8126 3.79529L14.3763 19.6345L12 18.8424Z" fill="#FBDBD0"/>
<path d="M29.7569 47.957C29.4792 47.9773 28.911 47.8852 28.8597 47.3545C28.8324 47.0717 28.847 46.6336 29.3084 46.2551C29.5647 46.0449 30.1544 45.9627 30.2056 47.2777C30.2278 47.8489 29.9748 49.1477 29.3083 49.4765C29.0519 49.603 28.557 49.2904 29.4365 48.142C29.6288 47.8909 29.8851 47.5328 30.0774 47.3518C30.2697 47.1707 30.5645 46.8885 30.7183 46.9117C30.7933 46.923 30.8593 46.9844 30.6542 47.4389C30.5762 47.6119 30.7183 47.8921 31.231 46.8958C31.3699 46.6258 31.6283 46.3022 31.6796 46.4967C31.7117 46.6183 31.6924 47.0075 32 46.6618" stroke="#374874" stroke-width="0.5" stroke-linecap="round"/>
<path d="M49.8138 20.0539C49.8138 20.0539 50.4898 19.8607 50.9589 20.2057C51.5236 20.6209 51.428 21.0887 51.428 21.0887L50.0621 22.9512L48.6548 21.9165L49.8138 20.0539Z" fill="white"/>
<path d="M32.5952 43.4393L47.6613 21.3369C47.6613 21.3369 48.1426 21.3436 48.6746 21.4976C48.9502 21.5773 49.2395 21.6966 49.4825 21.875C50.4055 22.5526 50.3931 23.1581 50.3931 23.1581L35.2442 45.095L32.5952 46.585L32.1399 46.2401L32.5952 43.4393Z" fill="#C1DBF6"/>
<path d="M45.0263 27.5518L49.5654 21.3369C49.5654 21.3369 49.524 20.7437 48.779 20.8402C48.034 20.9368 47.896 21.3507 47.896 21.3507L43.8397 27.0763C43.8397 27.0763 43.3017 27.8479 45.0263 27.5518Z" fill="white"/>
<path d="M32.1815 46.0125L32.0023 46.8106C31.9848 46.8888 32.0715 46.9484 32.1383 46.904L32.7954 46.4678C32.7954 46.4678 32.6537 46.2274 32.5816 46.1712C32.4967 46.1051 32.1815 46.0125 32.1815 46.0125Z" fill="#ECECEC"/>
<path d="M42.2175 25.6437V25.6436V4.5141C42.2175 3.91087 41.8311 3.37547 41.2586 3.18541L39.9915 2.76478C39.6121 2.63879 39.1968 2.68109 38.8505 2.881L12.8017 17.9184C12.0591 18.3471 11.6016 19.1394 11.6016 19.9969V59.3116C11.6016 59.9141 11.9871 60.449 12.5586 60.6396L13.8231 61.0614C14.203 61.1881 14.6189 61.1461 14.9658 60.946L41.0158 45.9159C41.7587 45.4873 42.2164 44.6948 42.2164 43.8371V35.7004L50.5011 23.6981C50.6613 23.466 50.8029 23.1125 50.7032 22.7492L51.5179 21.6436C51.7183 21.3717 51.8792 20.9499 51.7023 20.5272C51.6117 20.3106 51.4624 20.0774 51.2166 19.8989C50.9678 19.7181 50.6485 19.6141 50.2559 19.6126C49.7943 19.6108 49.4398 19.9027 49.2433 20.2182L49.0921 20.4611C48.9287 20.4391 48.7417 20.4367 48.5492 20.4713C48.2458 20.5259 47.923 20.6747 47.6731 20.9816C47.4829 21.0345 47.3146 21.1531 47.2007 21.3201L42.2167 28.6253L42.2175 25.6437Z" stroke="#374874" stroke-width="0.8"/>
</svg>
